<mxfile host="app.diagrams.net" modified="2023-06-15T05:43:43.418Z" agent="Mozilla/5.0 (Macintosh; Intel Mac OS X 10_15_7) AppleWebKit/605.1.15 (KHTML, like Gecko) Version/16.3 Safari/605.1.15" etag="i0aPp2Zb50ecsvX40Sn2" version="21.4.0" type="github">
  <diagram name="Page-1" id="74e2e168-ea6b-b213-b513-2b3c1d86103e">
    <mxGraphModel dx="838" dy="802" grid="1" gridSize="10" guides="1" tooltips="1" connect="1" arrows="1" fold="1" page="1" pageScale="1" pageWidth="1100" pageHeight="850" background="none" math="0" shadow="0">
      <root>
        <mxCell id="0" />
        <mxCell id="1" parent="0" />
        <mxCell id="77e6c97f196da883-1" value="CS" style="swimlane;html=1;childLayout=stackLayout;startSize=20;rounded=0;shadow=0;labelBackgroundColor=none;strokeWidth=1;fontFamily=Verdana;fontSize=8;align=center;fillColor=#A8DADC;strokeColor=#457B9D;fontColor=#1D3557;" parent="1" vertex="1">
          <mxGeometry x="260" y="70" width="620" height="1040" as="geometry">
            <mxRectangle x="300" y="60" width="50" height="20" as="alternateBounds" />
          </mxGeometry>
        </mxCell>
        <mxCell id="77e6c97f196da883-40" style="edgeStyle=orthogonalEdgeStyle;rounded=1;html=1;labelBackgroundColor=none;startArrow=none;startFill=0;startSize=5;endArrow=classicThin;endFill=1;endSize=5;jettySize=auto;orthogonalLoop=1;strokeWidth=1;fontFamily=Verdana;fontSize=8;strokeColor=#457B9D;fontColor=default;" parent="77e6c97f196da883-1" target="77e6c97f196da883-24" edge="1">
          <mxGeometry relative="1" as="geometry">
            <mxPoint x="770" y="690" as="sourcePoint" />
          </mxGeometry>
        </mxCell>
        <mxCell id="77e6c97f196da883-2" value="Client" style="swimlane;html=1;startSize=20;labelBackgroundColor=none;fillColor=#A8DADC;strokeColor=#457B9D;fontColor=#1D3557;" parent="77e6c97f196da883-1" vertex="1">
          <mxGeometry y="20" width="160" height="1020" as="geometry" />
        </mxCell>
        <mxCell id="yFmoRRBljweE4ICY3tDK-78" value="" style="edgeStyle=orthogonalEdgeStyle;rounded=0;orthogonalLoop=1;jettySize=auto;html=1;labelBackgroundColor=none;strokeColor=#457B9D;fontColor=default;" edge="1" parent="77e6c97f196da883-2" source="yFmoRRBljweE4ICY3tDK-76" target="yFmoRRBljweE4ICY3tDK-77">
          <mxGeometry relative="1" as="geometry" />
        </mxCell>
        <mxCell id="yFmoRRBljweE4ICY3tDK-76" value="" style="ellipse;whiteSpace=wrap;html=1;aspect=fixed;labelBackgroundColor=none;fillColor=#A8DADC;strokeColor=#457B9D;fontColor=#1D3557;" vertex="1" parent="77e6c97f196da883-2">
          <mxGeometry x="65" y="40" width="30" height="30" as="geometry" />
        </mxCell>
        <mxCell id="yFmoRRBljweE4ICY3tDK-80" value="" style="edgeStyle=orthogonalEdgeStyle;rounded=0;orthogonalLoop=1;jettySize=auto;html=1;labelBackgroundColor=none;strokeColor=#457B9D;fontColor=default;" edge="1" parent="77e6c97f196da883-2" source="yFmoRRBljweE4ICY3tDK-77" target="yFmoRRBljweE4ICY3tDK-79">
          <mxGeometry relative="1" as="geometry" />
        </mxCell>
        <mxCell id="yFmoRRBljweE4ICY3tDK-77" value="Grant&lt;br&gt;permission" style="rounded=1;whiteSpace=wrap;html=1;shadow=0;labelBackgroundColor=none;strokeWidth=1;fontFamily=Verdana;fontSize=12;align=center;fillColor=#A8DADC;strokeColor=#457B9D;fontColor=#1D3557;" vertex="1" parent="77e6c97f196da883-2">
          <mxGeometry x="30" y="100" width="100" height="40" as="geometry" />
        </mxCell>
        <mxCell id="yFmoRRBljweE4ICY3tDK-82" value="" style="edgeStyle=orthogonalEdgeStyle;rounded=0;orthogonalLoop=1;jettySize=auto;html=1;labelBackgroundColor=none;strokeColor=#457B9D;fontColor=default;" edge="1" parent="77e6c97f196da883-2" source="yFmoRRBljweE4ICY3tDK-79" target="yFmoRRBljweE4ICY3tDK-81">
          <mxGeometry relative="1" as="geometry" />
        </mxCell>
        <mxCell id="yFmoRRBljweE4ICY3tDK-79" value="Login" style="rounded=1;whiteSpace=wrap;html=1;shadow=0;labelBackgroundColor=none;strokeWidth=1;fontFamily=Verdana;fontSize=12;align=center;fillColor=#A8DADC;strokeColor=#457B9D;fontColor=#1D3557;" vertex="1" parent="77e6c97f196da883-2">
          <mxGeometry x="30" y="170" width="100" height="40" as="geometry" />
        </mxCell>
        <mxCell id="yFmoRRBljweE4ICY3tDK-81" value="Connect as single" style="rounded=1;whiteSpace=wrap;html=1;shadow=0;labelBackgroundColor=none;strokeWidth=1;fontFamily=Verdana;fontSize=12;align=center;fillColor=#A8DADC;strokeColor=#457B9D;fontColor=#1D3557;" vertex="1" parent="77e6c97f196da883-2">
          <mxGeometry x="30" y="240" width="100" height="40" as="geometry" />
        </mxCell>
        <mxCell id="yFmoRRBljweE4ICY3tDK-83" value="Do public matchmaking" style="rounded=1;whiteSpace=wrap;html=1;shadow=0;labelBackgroundColor=none;strokeWidth=1;fontFamily=Verdana;fontSize=12;align=center;fillColor=#A8DADC;strokeColor=#457B9D;fontColor=#1D3557;" vertex="1" parent="77e6c97f196da883-2">
          <mxGeometry x="30" y="390" width="100" height="40" as="geometry" />
        </mxCell>
        <mxCell id="yFmoRRBljweE4ICY3tDK-86" value="" style="edgeStyle=orthogonalEdgeStyle;rounded=0;orthogonalLoop=1;jettySize=auto;html=1;labelBackgroundColor=none;strokeColor=#457B9D;fontColor=default;" edge="1" parent="77e6c97f196da883-2" source="yFmoRRBljweE4ICY3tDK-85" target="yFmoRRBljweE4ICY3tDK-83">
          <mxGeometry relative="1" as="geometry" />
        </mxCell>
        <mxCell id="yFmoRRBljweE4ICY3tDK-85" value="Check version" style="rounded=1;whiteSpace=wrap;html=1;shadow=0;labelBackgroundColor=none;strokeWidth=1;fontFamily=Verdana;fontSize=12;align=center;fillColor=#A8DADC;strokeColor=#457B9D;fontColor=#1D3557;" vertex="1" parent="77e6c97f196da883-2">
          <mxGeometry x="30" y="315" width="100" height="40" as="geometry" />
        </mxCell>
        <mxCell id="yFmoRRBljweE4ICY3tDK-84" value="" style="edgeStyle=orthogonalEdgeStyle;rounded=0;orthogonalLoop=1;jettySize=auto;html=1;labelBackgroundColor=none;strokeColor=#457B9D;fontColor=default;" edge="1" parent="77e6c97f196da883-2" source="yFmoRRBljweE4ICY3tDK-81" target="yFmoRRBljweE4ICY3tDK-85">
          <mxGeometry relative="1" as="geometry" />
        </mxCell>
        <mxCell id="yFmoRRBljweE4ICY3tDK-118" value="" style="edgeStyle=orthogonalEdgeStyle;rounded=0;orthogonalLoop=1;jettySize=auto;html=1;labelBackgroundColor=none;strokeColor=#457B9D;fontColor=default;" edge="1" parent="77e6c97f196da883-2" source="yFmoRRBljweE4ICY3tDK-113" target="yFmoRRBljweE4ICY3tDK-117">
          <mxGeometry relative="1" as="geometry" />
        </mxCell>
        <mxCell id="yFmoRRBljweE4ICY3tDK-122" value="" style="edgeStyle=orthogonalEdgeStyle;rounded=0;orthogonalLoop=1;jettySize=auto;html=1;labelBackgroundColor=none;strokeColor=#457B9D;fontColor=default;" edge="1" parent="77e6c97f196da883-2" source="yFmoRRBljweE4ICY3tDK-113" target="yFmoRRBljweE4ICY3tDK-83">
          <mxGeometry relative="1" as="geometry" />
        </mxCell>
        <mxCell id="yFmoRRBljweE4ICY3tDK-113" value="Connect as client" style="rounded=1;whiteSpace=wrap;html=1;shadow=0;labelBackgroundColor=none;strokeWidth=1;fontFamily=Verdana;fontSize=12;align=center;fillColor=#A8DADC;strokeColor=#457B9D;fontColor=#1D3557;" vertex="1" parent="77e6c97f196da883-2">
          <mxGeometry x="30" y="470" width="100" height="40" as="geometry" />
        </mxCell>
        <mxCell id="yFmoRRBljweE4ICY3tDK-121" value="" style="edgeStyle=orthogonalEdgeStyle;rounded=0;orthogonalLoop=1;jettySize=auto;html=1;exitX=0;exitY=0.5;exitDx=0;exitDy=0;entryX=0;entryY=0.5;entryDx=0;entryDy=0;labelBackgroundColor=none;strokeColor=#457B9D;fontColor=default;" edge="1" parent="77e6c97f196da883-2" source="yFmoRRBljweE4ICY3tDK-117" target="yFmoRRBljweE4ICY3tDK-113">
          <mxGeometry relative="1" as="geometry">
            <mxPoint x="80" y="630" as="targetPoint" />
          </mxGeometry>
        </mxCell>
        <mxCell id="yFmoRRBljweE4ICY3tDK-117" value="Do private matchmaking" style="rounded=1;whiteSpace=wrap;html=1;shadow=0;labelBackgroundColor=none;strokeWidth=1;fontFamily=Verdana;fontSize=12;align=center;fillColor=#A8DADC;strokeColor=#457B9D;fontColor=#1D3557;" vertex="1" parent="77e6c97f196da883-2">
          <mxGeometry x="30" y="550" width="100" height="40" as="geometry" />
        </mxCell>
        <mxCell id="77e6c97f196da883-3" value="PlayFab" style="swimlane;html=1;startSize=20;labelBackgroundColor=none;fillColor=#A8DADC;strokeColor=#457B9D;fontColor=#1D3557;" parent="77e6c97f196da883-1" vertex="1">
          <mxGeometry x="160" y="20" width="300" height="1020" as="geometry" />
        </mxCell>
        <mxCell id="yFmoRRBljweE4ICY3tDK-25" value="Server state" style="swimlane;whiteSpace=wrap;html=1;labelBackgroundColor=none;fillColor=#A8DADC;strokeColor=#457B9D;fontColor=#1D3557;" vertex="1" parent="77e6c97f196da883-3">
          <mxGeometry x="80" y="210" width="140" height="135" as="geometry" />
        </mxCell>
        <mxCell id="yFmoRRBljweE4ICY3tDK-21" value="Standing by" style="rounded=1;whiteSpace=wrap;html=1;shadow=0;labelBackgroundColor=none;strokeWidth=1;fontFamily=Verdana;fontSize=12;align=center;fillColor=#A8DADC;strokeColor=#457B9D;fontColor=#1D3557;" vertex="1" parent="yFmoRRBljweE4ICY3tDK-25">
          <mxGeometry x="20" y="35" width="100" height="35" as="geometry" />
        </mxCell>
        <mxCell id="yFmoRRBljweE4ICY3tDK-23" value="Active" style="rounded=1;whiteSpace=wrap;html=1;shadow=0;labelBackgroundColor=none;strokeWidth=1;fontFamily=Verdana;fontSize=12;align=center;fillColor=#A8DADC;strokeColor=#457B9D;fontColor=#1D3557;" vertex="1" parent="yFmoRRBljweE4ICY3tDK-25">
          <mxGeometry x="20" y="85" width="100" height="35" as="geometry" />
        </mxCell>
        <mxCell id="yFmoRRBljweE4ICY3tDK-110" value="" style="edgeStyle=orthogonalEdgeStyle;rounded=0;orthogonalLoop=1;jettySize=auto;html=1;labelBackgroundColor=none;strokeColor=#457B9D;fontColor=default;" edge="1" parent="77e6c97f196da883-3" source="yFmoRRBljweE4ICY3tDK-62" target="yFmoRRBljweE4ICY3tDK-108">
          <mxGeometry relative="1" as="geometry" />
        </mxCell>
        <mxCell id="yFmoRRBljweE4ICY3tDK-62" value="Backfill ticket" style="swimlane;whiteSpace=wrap;html=1;labelBackgroundColor=none;fillColor=#A8DADC;strokeColor=#457B9D;fontColor=#1D3557;" vertex="1" parent="77e6c97f196da883-3">
          <mxGeometry x="45" y="600" width="210" height="160" as="geometry" />
        </mxCell>
        <mxCell id="yFmoRRBljweE4ICY3tDK-104" value="Create/Update" style="rounded=1;whiteSpace=wrap;html=1;shadow=0;labelBackgroundColor=none;strokeWidth=1;fontFamily=Verdana;fontSize=12;align=center;fillColor=#A8DADC;strokeColor=#457B9D;fontColor=#1D3557;" vertex="1" parent="yFmoRRBljweE4ICY3tDK-62">
          <mxGeometry x="55" y="40" width="100" height="35" as="geometry" />
        </mxCell>
        <mxCell id="yFmoRRBljweE4ICY3tDK-107" value="Cancel" style="rounded=1;whiteSpace=wrap;html=1;shadow=0;labelBackgroundColor=none;strokeWidth=1;fontFamily=Verdana;fontSize=12;align=center;fillColor=#A8DADC;strokeColor=#457B9D;fontColor=#1D3557;" vertex="1" parent="yFmoRRBljweE4ICY3tDK-62">
          <mxGeometry x="55" y="102" width="100" height="35" as="geometry" />
        </mxCell>
        <mxCell id="yFmoRRBljweE4ICY3tDK-109" value="" style="edgeStyle=orthogonalEdgeStyle;rounded=0;orthogonalLoop=1;jettySize=auto;html=1;labelBackgroundColor=none;strokeColor=#457B9D;fontColor=default;" edge="1" parent="77e6c97f196da883-3" source="yFmoRRBljweE4ICY3tDK-96" target="yFmoRRBljweE4ICY3tDK-108">
          <mxGeometry relative="1" as="geometry" />
        </mxCell>
        <mxCell id="yFmoRRBljweE4ICY3tDK-96" value="Matchmaking ticket" style="swimlane;whiteSpace=wrap;html=1;labelBackgroundColor=none;fillColor=#A8DADC;strokeColor=#457B9D;fontColor=#1D3557;" vertex="1" parent="77e6c97f196da883-3">
          <mxGeometry x="80" y="370" width="140" height="82" as="geometry" />
        </mxCell>
        <mxCell id="yFmoRRBljweE4ICY3tDK-97" value="Create" style="rounded=1;whiteSpace=wrap;html=1;shadow=0;labelBackgroundColor=none;strokeWidth=1;fontFamily=Verdana;fontSize=12;align=center;fillColor=#A8DADC;strokeColor=#457B9D;fontColor=#1D3557;" vertex="1" parent="yFmoRRBljweE4ICY3tDK-96">
          <mxGeometry x="20" y="35" width="100" height="35" as="geometry" />
        </mxCell>
        <mxCell id="yFmoRRBljweE4ICY3tDK-108" value="Matched" style="ellipse;shape=cloud;whiteSpace=wrap;html=1;labelBackgroundColor=none;fillColor=#A8DADC;strokeColor=#457B9D;fontColor=#1D3557;" vertex="1" parent="77e6c97f196da883-3">
          <mxGeometry x="90" y="480" width="120" height="80" as="geometry" />
        </mxCell>
        <mxCell id="yFmoRRBljweE4ICY3tDK-22" value="" style="edgeStyle=orthogonalEdgeStyle;rounded=0;orthogonalLoop=1;jettySize=auto;html=1;entryX=1;entryY=0.5;entryDx=0;entryDy=0;labelBackgroundColor=none;strokeColor=#457B9D;fontColor=default;" edge="1" parent="77e6c97f196da883-1" source="yFmoRRBljweE4ICY3tDK-19" target="yFmoRRBljweE4ICY3tDK-21">
          <mxGeometry relative="1" as="geometry">
            <Array as="points">
              <mxPoint x="470" y="350" />
              <mxPoint x="470" y="283" />
            </Array>
          </mxGeometry>
        </mxCell>
        <mxCell id="yFmoRRBljweE4ICY3tDK-27" value="" style="edgeStyle=orthogonalEdgeStyle;rounded=0;orthogonalLoop=1;jettySize=auto;html=1;entryX=0;entryY=0.5;entryDx=0;entryDy=0;labelBackgroundColor=none;strokeColor=#457B9D;fontColor=default;" edge="1" parent="77e6c97f196da883-1" source="yFmoRRBljweE4ICY3tDK-23" target="yFmoRRBljweE4ICY3tDK-26">
          <mxGeometry relative="1" as="geometry">
            <Array as="points">
              <mxPoint x="440" y="333" />
              <mxPoint x="440" y="425" />
            </Array>
          </mxGeometry>
        </mxCell>
        <mxCell id="77e6c97f196da883-5" value="Server" style="swimlane;html=1;startSize=20;labelBackgroundColor=none;fillColor=#A8DADC;strokeColor=#457B9D;fontColor=#1D3557;" parent="77e6c97f196da883-1" vertex="1">
          <mxGeometry x="460" y="20" width="160" height="1020" as="geometry" />
        </mxCell>
        <mxCell id="yFmoRRBljweE4ICY3tDK-11" value="" style="edgeStyle=orthogonalEdgeStyle;rounded=0;orthogonalLoop=1;jettySize=auto;html=1;labelBackgroundColor=none;strokeColor=#457B9D;fontColor=default;" edge="1" parent="77e6c97f196da883-5" source="yFmoRRBljweE4ICY3tDK-2" target="yFmoRRBljweE4ICY3tDK-7">
          <mxGeometry relative="1" as="geometry" />
        </mxCell>
        <mxCell id="yFmoRRBljweE4ICY3tDK-2" value="Authentication" style="rounded=1;whiteSpace=wrap;html=1;shadow=0;labelBackgroundColor=none;strokeWidth=1;fontFamily=Verdana;fontSize=12;align=center;fillColor=#A8DADC;strokeColor=#457B9D;fontColor=#1D3557;" vertex="1" parent="77e6c97f196da883-5">
          <mxGeometry x="30" y="100" width="100" height="40" as="geometry" />
        </mxCell>
        <mxCell id="yFmoRRBljweE4ICY3tDK-4" value="" style="edgeStyle=orthogonalEdgeStyle;rounded=0;orthogonalLoop=1;jettySize=auto;html=1;labelBackgroundColor=none;strokeColor=#457B9D;fontColor=default;" edge="1" parent="77e6c97f196da883-5" source="yFmoRRBljweE4ICY3tDK-3" target="yFmoRRBljweE4ICY3tDK-2">
          <mxGeometry relative="1" as="geometry" />
        </mxCell>
        <mxCell id="yFmoRRBljweE4ICY3tDK-3" value="" style="ellipse;whiteSpace=wrap;html=1;aspect=fixed;labelBackgroundColor=none;fillColor=#A8DADC;strokeColor=#457B9D;fontColor=#1D3557;" vertex="1" parent="77e6c97f196da883-5">
          <mxGeometry x="65" y="40" width="30" height="30" as="geometry" />
        </mxCell>
        <mxCell id="yFmoRRBljweE4ICY3tDK-18" value="" style="edgeStyle=orthogonalEdgeStyle;rounded=0;orthogonalLoop=1;jettySize=auto;html=1;labelBackgroundColor=none;strokeColor=#457B9D;fontColor=default;" edge="1" parent="77e6c97f196da883-5" source="yFmoRRBljweE4ICY3tDK-7" target="yFmoRRBljweE4ICY3tDK-17">
          <mxGeometry relative="1" as="geometry" />
        </mxCell>
        <mxCell id="yFmoRRBljweE4ICY3tDK-7" value="Login" style="rounded=1;whiteSpace=wrap;html=1;shadow=0;labelBackgroundColor=none;strokeWidth=1;fontFamily=Verdana;fontSize=12;align=center;fillColor=#A8DADC;strokeColor=#457B9D;fontColor=#1D3557;" vertex="1" parent="77e6c97f196da883-5">
          <mxGeometry x="30" y="170" width="100" height="40" as="geometry" />
        </mxCell>
        <mxCell id="yFmoRRBljweE4ICY3tDK-20" value="" style="edgeStyle=orthogonalEdgeStyle;rounded=0;orthogonalLoop=1;jettySize=auto;html=1;labelBackgroundColor=none;strokeColor=#457B9D;fontColor=default;" edge="1" parent="77e6c97f196da883-5" source="yFmoRRBljweE4ICY3tDK-17" target="yFmoRRBljweE4ICY3tDK-19">
          <mxGeometry relative="1" as="geometry" />
        </mxCell>
        <mxCell id="yFmoRRBljweE4ICY3tDK-17" value="Initialize" style="rounded=1;whiteSpace=wrap;html=1;shadow=0;labelBackgroundColor=none;strokeWidth=1;fontFamily=Verdana;fontSize=12;align=center;fillColor=#A8DADC;strokeColor=#457B9D;fontColor=#1D3557;" vertex="1" parent="77e6c97f196da883-5">
          <mxGeometry x="30" y="240" width="100" height="40" as="geometry" />
        </mxCell>
        <mxCell id="yFmoRRBljweE4ICY3tDK-19" value="Ready" style="rounded=1;whiteSpace=wrap;html=1;shadow=0;labelBackgroundColor=none;strokeWidth=1;fontFamily=Verdana;fontSize=12;align=center;fillColor=#A8DADC;strokeColor=#457B9D;fontColor=#1D3557;" vertex="1" parent="77e6c97f196da883-5">
          <mxGeometry x="30" y="310" width="100" height="40" as="geometry" />
        </mxCell>
        <mxCell id="yFmoRRBljweE4ICY3tDK-29" value="" style="edgeStyle=orthogonalEdgeStyle;rounded=0;orthogonalLoop=1;jettySize=auto;html=1;labelBackgroundColor=none;strokeColor=#457B9D;fontColor=default;" edge="1" parent="77e6c97f196da883-5" source="yFmoRRBljweE4ICY3tDK-26" target="yFmoRRBljweE4ICY3tDK-28">
          <mxGeometry relative="1" as="geometry" />
        </mxCell>
        <mxCell id="yFmoRRBljweE4ICY3tDK-26" value="Connect as server" style="rounded=1;whiteSpace=wrap;html=1;shadow=0;labelBackgroundColor=none;strokeWidth=1;fontFamily=Verdana;fontSize=12;align=center;fillColor=#A8DADC;strokeColor=#457B9D;fontColor=#1D3557;" vertex="1" parent="77e6c97f196da883-5">
          <mxGeometry x="30" y="385" width="100" height="40" as="geometry" />
        </mxCell>
        <mxCell id="yFmoRRBljweE4ICY3tDK-28" value="Player &amp;nbsp;join" style="rounded=1;whiteSpace=wrap;html=1;shadow=0;labelBackgroundColor=none;strokeWidth=1;fontFamily=Verdana;fontSize=12;align=center;fillColor=#A8DADC;strokeColor=#457B9D;fontColor=#1D3557;" vertex="1" parent="77e6c97f196da883-5">
          <mxGeometry x="30" y="455" width="100" height="40" as="geometry" />
        </mxCell>
        <mxCell id="yFmoRRBljweE4ICY3tDK-36" value="&lt;font face=&quot;Verdana&quot;&gt;All players left?&lt;/font&gt;" style="rhombus;whiteSpace=wrap;html=1;labelBackgroundColor=none;fillColor=#A8DADC;strokeColor=#457B9D;fontColor=#1D3557;" vertex="1" parent="77e6c97f196da883-5">
          <mxGeometry x="20" y="595" width="120" height="65" as="geometry" />
        </mxCell>
        <mxCell id="yFmoRRBljweE4ICY3tDK-58" value="" style="edgeStyle=orthogonalEdgeStyle;rounded=0;orthogonalLoop=1;jettySize=auto;html=1;labelBackgroundColor=none;strokeColor=#457B9D;fontColor=default;" edge="1" parent="77e6c97f196da883-5" source="yFmoRRBljweE4ICY3tDK-56" target="yFmoRRBljweE4ICY3tDK-36">
          <mxGeometry relative="1" as="geometry" />
        </mxCell>
        <mxCell id="yFmoRRBljweE4ICY3tDK-56" value="Player Left" style="rounded=1;whiteSpace=wrap;html=1;shadow=0;labelBackgroundColor=none;strokeWidth=1;fontFamily=Verdana;fontSize=12;align=center;fillColor=#A8DADC;strokeColor=#457B9D;fontColor=#1D3557;" vertex="1" parent="77e6c97f196da883-5">
          <mxGeometry x="30" y="525" width="100" height="40" as="geometry" />
        </mxCell>
        <mxCell id="yFmoRRBljweE4ICY3tDK-34" value="" style="edgeStyle=orthogonalEdgeStyle;rounded=0;orthogonalLoop=1;jettySize=auto;html=1;labelBackgroundColor=none;strokeColor=#457B9D;fontColor=default;" edge="1" parent="77e6c97f196da883-5" source="yFmoRRBljweE4ICY3tDK-28" target="yFmoRRBljweE4ICY3tDK-56">
          <mxGeometry relative="1" as="geometry">
            <mxPoint x="80" y="525" as="targetPoint" />
          </mxGeometry>
        </mxCell>
        <mxCell id="yFmoRRBljweE4ICY3tDK-75" value="" style="edgeStyle=orthogonalEdgeStyle;rounded=0;orthogonalLoop=1;jettySize=auto;html=1;labelBackgroundColor=none;strokeColor=#457B9D;fontColor=default;" edge="1" parent="77e6c97f196da883-5" source="yFmoRRBljweE4ICY3tDK-37" target="yFmoRRBljweE4ICY3tDK-74">
          <mxGeometry relative="1" as="geometry" />
        </mxCell>
        <mxCell id="yFmoRRBljweE4ICY3tDK-37" value="Shutdown" style="rounded=1;whiteSpace=wrap;html=1;shadow=0;labelBackgroundColor=none;strokeWidth=1;fontFamily=Verdana;fontSize=12;align=center;fillColor=#A8DADC;strokeColor=#457B9D;fontColor=#1D3557;" vertex="1" parent="77e6c97f196da883-5">
          <mxGeometry x="30" y="700" width="100" height="40" as="geometry" />
        </mxCell>
        <mxCell id="yFmoRRBljweE4ICY3tDK-38" value="Y" style="edgeStyle=orthogonalEdgeStyle;rounded=0;orthogonalLoop=1;jettySize=auto;html=1;labelBackgroundColor=none;strokeColor=#457B9D;fontColor=default;" edge="1" parent="77e6c97f196da883-5" source="yFmoRRBljweE4ICY3tDK-36" target="yFmoRRBljweE4ICY3tDK-37">
          <mxGeometry relative="1" as="geometry" />
        </mxCell>
        <mxCell id="yFmoRRBljweE4ICY3tDK-74" value="" style="ellipse;whiteSpace=wrap;html=1;aspect=fixed;labelBackgroundColor=none;fillColor=#A8DADC;strokeColor=#457B9D;fontColor=#1D3557;" vertex="1" parent="77e6c97f196da883-5">
          <mxGeometry x="65" y="770" width="30" height="30" as="geometry" />
        </mxCell>
        <mxCell id="yFmoRRBljweE4ICY3tDK-73" value="" style="edgeStyle=orthogonalEdgeStyle;rounded=0;orthogonalLoop=1;jettySize=auto;html=1;labelBackgroundColor=none;strokeColor=#457B9D;fontColor=default;" edge="1" parent="77e6c97f196da883-1" source="yFmoRRBljweE4ICY3tDK-37" target="yFmoRRBljweE4ICY3tDK-107">
          <mxGeometry relative="1" as="geometry">
            <mxPoint x="360" y="740" as="targetPoint" />
          </mxGeometry>
        </mxCell>
        <mxCell id="yFmoRRBljweE4ICY3tDK-87" value="" style="edgeStyle=orthogonalEdgeStyle;rounded=0;orthogonalLoop=1;jettySize=auto;html=1;labelBackgroundColor=none;strokeColor=#457B9D;fontColor=default;" edge="1" parent="77e6c97f196da883-1" target="yFmoRRBljweE4ICY3tDK-104">
          <mxGeometry relative="1" as="geometry">
            <mxPoint x="480" y="648" as="sourcePoint" />
            <mxPoint x="375" y="680" as="targetPoint" />
            <Array as="points">
              <mxPoint x="480" y="649" />
              <mxPoint x="440" y="649" />
              <mxPoint x="440" y="680" />
            </Array>
          </mxGeometry>
        </mxCell>
        <mxCell id="yFmoRRBljweE4ICY3tDK-88" value="N" style="edgeLabel;html=1;align=center;verticalAlign=middle;resizable=0;points=[];fontFamily=Verdana;fontSize=12;labelBackgroundColor=none;fontColor=#1D3557;" vertex="1" connectable="0" parent="yFmoRRBljweE4ICY3tDK-87">
          <mxGeometry x="-0.1469" y="1" relative="1" as="geometry">
            <mxPoint x="19" y="-18" as="offset" />
          </mxGeometry>
        </mxCell>
        <mxCell id="yFmoRRBljweE4ICY3tDK-89" value="" style="edgeStyle=orthogonalEdgeStyle;rounded=0;orthogonalLoop=1;jettySize=auto;html=1;labelBackgroundColor=none;strokeColor=#457B9D;fontColor=default;" edge="1" parent="77e6c97f196da883-1" source="yFmoRRBljweE4ICY3tDK-28" target="yFmoRRBljweE4ICY3tDK-104">
          <mxGeometry relative="1" as="geometry">
            <mxPoint x="500" y="750" as="sourcePoint" />
            <mxPoint x="375" y="680" as="targetPoint" />
            <Array as="points">
              <mxPoint x="440" y="495" />
              <mxPoint x="440" y="680" />
            </Array>
          </mxGeometry>
        </mxCell>
        <mxCell id="yFmoRRBljweE4ICY3tDK-106" value="" style="edgeStyle=orthogonalEdgeStyle;rounded=0;orthogonalLoop=1;jettySize=auto;html=1;exitX=1;exitY=0.5;exitDx=0;exitDy=0;labelBackgroundColor=none;strokeColor=#457B9D;fontColor=default;" edge="1" parent="77e6c97f196da883-1" source="yFmoRRBljweE4ICY3tDK-83" target="yFmoRRBljweE4ICY3tDK-97">
          <mxGeometry relative="1" as="geometry">
            <mxPoint x="90" y="385" as="sourcePoint" />
            <mxPoint x="90" y="420" as="targetPoint" />
            <Array as="points">
              <mxPoint x="210" y="430" />
              <mxPoint x="210" y="443" />
            </Array>
          </mxGeometry>
        </mxCell>
        <mxCell id="yFmoRRBljweE4ICY3tDK-111" value="" style="edgeStyle=orthogonalEdgeStyle;rounded=0;orthogonalLoop=1;jettySize=auto;html=1;entryX=0.5;entryY=0;entryDx=0;entryDy=0;labelBackgroundColor=none;strokeColor=#457B9D;fontColor=default;" edge="1" parent="77e6c97f196da883-1" source="yFmoRRBljweE4ICY3tDK-108" target="yFmoRRBljweE4ICY3tDK-28">
          <mxGeometry relative="1" as="geometry">
            <mxPoint x="320" y="482" as="sourcePoint" />
            <mxPoint x="320" y="510" as="targetPoint" />
            <Array as="points">
              <mxPoint x="420" y="540" />
              <mxPoint x="420" y="460" />
              <mxPoint x="540" y="460" />
            </Array>
          </mxGeometry>
        </mxCell>
        <mxCell id="yFmoRRBljweE4ICY3tDK-116" value="" style="edgeStyle=orthogonalEdgeStyle;rounded=0;orthogonalLoop=1;jettySize=auto;html=1;entryX=1;entryY=0.5;entryDx=0;entryDy=0;labelBackgroundColor=none;strokeColor=#457B9D;fontColor=default;" edge="1" parent="77e6c97f196da883-1" source="yFmoRRBljweE4ICY3tDK-108" target="yFmoRRBljweE4ICY3tDK-113">
          <mxGeometry relative="1" as="geometry">
            <mxPoint x="320" y="630" as="sourcePoint" />
            <mxPoint x="320" y="590" as="targetPoint" />
          </mxGeometry>
        </mxCell>
        <mxCell id="yFmoRRBljweE4ICY3tDK-119" value="" style="edgeStyle=orthogonalEdgeStyle;rounded=0;orthogonalLoop=1;jettySize=auto;html=1;labelBackgroundColor=none;strokeColor=#457B9D;fontColor=default;" edge="1" parent="77e6c97f196da883-1" source="yFmoRRBljweE4ICY3tDK-117" target="yFmoRRBljweE4ICY3tDK-97">
          <mxGeometry relative="1" as="geometry">
            <mxPoint x="90" y="540" as="sourcePoint" />
            <mxPoint x="90" y="580" as="targetPoint" />
            <Array as="points">
              <mxPoint x="210" y="590" />
              <mxPoint x="210" y="443" />
            </Array>
          </mxGeometry>
        </mxCell>
      </root>
    </mxGraphModel>
  </diagram>
</mxfile>
